<svg xmlns="http://www.w3.org/2000/svg" width="21.08" height="21.08" viewBox="0 0 21.08 21.08">
  <g id="_4781851_calendar_date_day_event_month_icon" data-name="4781851_calendar_date_day_event_month_icon" transform="translate(-3 -3)">
    <g id="Layer_2" data-name="Layer 2" transform="translate(3 3)">
      <path id="Path_9" data-name="Path 9" d="M20.026,24.3H7.054A4.038,4.038,0,0,1,3,20.283V9.022A4.038,4.038,0,0,1,7.054,5H20.026A4.038,4.038,0,0,1,24.08,9.022V20.283A4.038,4.038,0,0,1,20.026,24.3ZM7.054,6.609A2.423,2.423,0,0,0,4.622,9.022V20.283A2.423,2.423,0,0,0,7.054,22.7H20.026a2.423,2.423,0,0,0,2.432-2.413V9.022a2.423,2.423,0,0,0-2.432-2.413Z" transform="translate(-3 -3.225)" fill="#0b95d3"/>
      <path id="Path_10" data-name="Path 10" d="M23.438,24.326H19.888A.888.888,0,0,1,19,23.438V19.888A.888.888,0,0,1,19.888,19h3.551a.888.888,0,0,1,.888.888v3.551A.888.888,0,0,1,23.438,24.326Zm-2.663-1.775h1.775V20.775H20.775Z" transform="translate(-6.397 -6.397)" fill="#0b95d3"/>
      <path id="Path_11" data-name="Path 11" d="M23.269,12.775H3.811a.891.891,0,0,1,0-1.775H23.269a.891.891,0,0,1,0,1.775Z" transform="translate(-3 -4.565)" fill="#0b95d3"/>
      <path id="Path_12" data-name="Path 12" d="M10.888,8.326A.888.888,0,0,1,10,7.438V3.888a.888.888,0,0,1,1.775,0V7.438A.888.888,0,0,1,10.888,8.326Z" transform="translate(-4.369 -3)" fill="#0b95d3"/>
      <path id="Path_13" data-name="Path 13" d="M20.888,8.326A.888.888,0,0,1,20,7.438V3.888a.888.888,0,0,1,1.775,0V7.438A.888.888,0,0,1,20.888,8.326Z" transform="translate(-6.326 -3)" fill="#0b95d3"/>
    </g>
  </g>
</svg>
