<svg id="icons" xmlns="http://www.w3.org/2000/svg" width="13.606" height="12.464" viewBox="0 0 13.606 12.464">
  <path id="message" d="M11.338,1H2.268A2.274,2.274,0,0,0,0,3.268V8.937A2.274,2.274,0,0,0,2.268,11.2v1.7a.567.567,0,0,0,.964.4l2.1-2.1h6.009a2.274,2.274,0,0,0,2.268-2.268V3.268A2.274,2.274,0,0,0,11.338,1Zm-3.4,6.8h-3.4a.567.567,0,1,1,0-1.134h3.4a.567.567,0,1,1,0,1.134ZM9.071,5.535H4.535a.536.536,0,0,1-.567-.567A.536.536,0,0,1,4.535,4.4H9.071a.536.536,0,0,1,.567.567A.536.536,0,0,1,9.071,5.535Z" transform="translate(0 -1)" fill="#c6c6c6"/>
</svg>
